<svg width="128" height="47" viewBox="0 0 128 47" fill="none" xmlns="http://www.w3.org/2000/svg">
<path d="M23.6937 1.32812C23.7198 1.45833 23.7719 1.57552 23.85 1.67969C23.9281 1.75781 24.0062 1.82292 24.0844 1.875C24.1104 2.08333 24.1234 2.30469 24.1234 2.53906C24.1495 2.7474 24.1885 2.95573 24.2406 3.16406C24.2406 3.26823 24.2406 3.38542 24.2406 3.51562C24.2406 3.61979 24.2797 3.71094 24.3578 3.78906C24.2797 4.70052 24.1495 5.45573 23.9672 6.05469C23.8109 6.6276 23.6677 7.26562 23.5375 7.96875C23.5115 8.09896 23.4724 8.22917 23.4203 8.35938C23.3943 8.46354 23.3812 8.58073 23.3812 8.71094C23.3552 8.8151 23.3422 8.90625 23.3422 8.98438C23.3682 9.0625 23.3682 9.15365 23.3422 9.25781C23.2901 9.41406 23.212 9.58333 23.1078 9.76562C23.0036 9.94792 22.8995 10.1432 22.7953 10.3516C22.3786 11.1068 21.9099 11.8229 21.3891 12.5C20.8943 13.1771 20.2693 13.6979 19.5141 14.0625C19.2276 14.1927 18.9802 14.3229 18.7719 14.4531C18.5896 14.5573 18.3552 14.6354 18.0687 14.6875C17.8865 14.7917 17.6651 14.9089 17.4047 15.0391C17.1703 15.1432 16.9359 15.2214 16.7016 15.2734C16.5974 15.3255 16.4932 15.3516 16.3891 15.3516C16.2849 15.3516 16.1807 15.3646 16.0766 15.3906C15.9464 15.4427 15.8292 15.4948 15.725 15.5469C15.6469 15.5729 15.5687 15.599 15.4906 15.625C15.2823 15.6771 15.126 15.7031 15.0219 15.7031C14.8396 15.6771 14.7094 15.5729 14.6312 15.3906C14.5531 15.1823 14.5141 14.974 14.5141 14.7656C14.4099 14.6615 14.2927 14.5703 14.1625 14.4922C14.0323 14.4141 13.9411 14.2708 13.8891 14.0625C13.8109 13.776 13.7589 13.6198 13.7328 13.5938C13.7068 13.5677 13.6807 13.5286 13.6547 13.4766C13.5245 13.112 13.4724 12.7083 13.4984 12.2656C13.5505 11.7969 13.6547 11.4193 13.8109 11.1328C13.863 11.0026 13.9411 10.9115 14.0453 10.8594C14.1495 10.7812 14.2146 10.6771 14.2406 10.5469C14.449 10.4167 14.6312 10.2865 14.7875 10.1562C14.9437 10 15.126 9.85677 15.3344 9.72656C15.5948 9.28385 15.8943 8.94531 16.2328 8.71094C16.5714 8.47656 16.8969 8.22917 17.2094 7.96875C17.3135 7.89062 17.3917 7.79948 17.4437 7.69531C17.5219 7.59115 17.626 7.48698 17.7562 7.38281C17.8344 7.30469 17.9255 7.23958 18.0297 7.1875C18.1339 7.10938 18.225 7.04427 18.3031 6.99219C18.3552 6.9401 18.4073 6.88802 18.4594 6.83594C18.5115 6.78385 18.5635 6.73177 18.6156 6.67969C18.7198 6.6276 18.824 6.60156 18.9281 6.60156C19.0323 6.60156 19.1365 6.57552 19.2406 6.52344C19.6052 6.47135 19.7875 6.4974 19.7875 6.60156C19.7875 6.67969 19.7875 6.77083 19.7875 6.875C19.6573 6.95312 19.501 7.03125 19.3187 7.10938C19.1365 7.16146 18.9542 7.21354 18.7719 7.26562C18.7198 7.47396 18.6026 7.63021 18.4203 7.73438C18.2641 7.83854 18.1208 7.98177 17.9906 8.16406C17.8865 8.29427 17.7953 8.42448 17.7172 8.55469C17.6651 8.65885 17.5479 8.73698 17.3656 8.78906C17.2354 9.10156 17.0661 9.375 16.8578 9.60938C16.6755 9.81771 16.4932 10.0391 16.3109 10.2734C16.3109 10.5599 16.2458 10.8073 16.1156 11.0156C16.0115 11.1979 15.8943 11.3932 15.7641 11.6016C15.712 11.7057 15.6599 11.8099 15.6078 11.9141C15.5557 12.0182 15.5297 12.0964 15.5297 12.1484C15.5557 12.2005 15.5818 12.2786 15.6078 12.3828C15.6599 12.4609 15.712 12.5391 15.7641 12.6172C15.8161 12.6953 15.8682 12.7604 15.9203 12.8125C15.9984 12.8646 16.0505 12.9297 16.0766 13.0078C16.7016 12.6172 17.3135 12.2266 17.9125 11.8359C18.5375 11.4453 19.0714 10.9766 19.5141 10.4297C19.6443 10.1953 19.7615 9.97396 19.8656 9.76562C19.9958 9.53125 20.126 9.28385 20.2562 9.02344C20.3083 8.76302 20.3865 8.51562 20.4906 8.28125C20.5948 8.04688 20.712 7.8125 20.8422 7.57812C20.9724 7.31771 21.0896 7.05729 21.1937 6.79688C21.2979 6.53646 21.363 6.26302 21.3891 5.97656C21.4151 5.76823 21.4151 5.54688 21.3891 5.3125C21.3891 5.05208 21.4281 4.85677 21.5062 4.72656C21.4542 4.59635 21.4542 4.42708 21.5062 4.21875C21.5583 3.98438 21.5714 3.76302 21.5453 3.55469C21.363 3.16406 21.1807 2.94271 20.9984 2.89062C20.8161 2.8125 20.6208 2.7474 20.4125 2.69531C20.2042 2.82552 19.9828 2.96875 19.7484 3.125C19.5141 3.28125 19.2927 3.45052 19.0844 3.63281C18.9281 3.78906 18.7589 3.94531 18.5766 4.10156C18.4203 4.25781 18.2901 4.4401 18.1859 4.64844C17.8474 5.01302 17.574 5.33854 17.3656 5.625C17.1573 5.88542 16.949 6.15885 16.7406 6.44531C16.2979 6.73177 15.8943 7.04427 15.5297 7.38281C15.1651 7.72135 14.7615 8.03385 14.3187 8.32031C13.9802 8.58073 13.6417 8.85417 13.3031 9.14062C12.9906 9.40104 12.6911 9.67448 12.4047 9.96094C12.1443 10.2474 11.8708 10.5208 11.5844 10.7812C11.2979 11.0156 11.0375 11.276 10.8031 11.5625C10.5948 11.849 10.3734 12.1484 10.1391 12.4609C9.90469 12.7474 9.67031 13.0339 9.43594 13.3203C9.30573 13.4505 9.18854 13.5938 9.08437 13.75C8.98021 13.9062 8.86302 14.0625 8.73281 14.2188C8.6026 14.349 8.47239 14.4922 8.34219 14.6484C8.23802 14.8047 8.13385 14.9479 8.02969 15.0781C7.95156 15.2083 7.88646 15.3516 7.83437 15.5078C7.78229 15.638 7.71719 15.7682 7.63906 15.8984C7.37864 16.2109 7.11823 16.5365 6.85781 16.875C6.62344 17.1875 6.4151 17.5521 6.23281 17.9688C5.92031 18.3854 5.67292 18.8021 5.49062 19.2188C5.33437 19.6094 5.15208 20 4.94375 20.3906C4.89167 20.7552 4.7875 21.0807 4.63125 21.3672C4.50104 21.6536 4.40989 21.9792 4.35781 22.3438C4.33177 22.526 4.27969 22.7083 4.20156 22.8906C4.14948 23.0469 4.11042 23.2292 4.08437 23.4375C4.03229 23.6198 4.00625 23.8151 4.00625 24.0234C4.00625 24.2057 3.98021 24.375 3.92812 24.5312C3.77187 24.8698 3.69375 25.1172 3.69375 25.2734C3.69375 25.4036 3.62864 25.5078 3.49844 25.5859C3.57656 25.7943 3.64167 25.9766 3.69375 26.1328C3.77187 26.2891 3.87604 26.4453 4.00625 26.6016C4.05833 26.7057 4.13646 26.7969 4.24062 26.875C4.34479 26.9531 4.42292 27.0443 4.475 27.1484C4.57917 27.4089 4.65729 27.5651 4.70937 27.6172C4.7875 27.6693 4.87864 27.7344 4.98281 27.8125C5.06094 27.8646 5.15208 27.9297 5.25625 28.0078C5.38646 28.0859 5.50364 28.138 5.60781 28.1641C5.73802 28.2161 5.86823 28.2422 5.99844 28.2422C6.15469 28.2161 6.29792 28.2161 6.42812 28.2422C6.55833 28.2422 6.67552 28.2552 6.77969 28.2812C6.88385 28.2812 7.00104 28.2682 7.13125 28.2422C7.33958 28.1901 7.58698 28.138 7.87344 28.0859C8.15989 28.0078 8.42031 27.9427 8.65469 27.8906C9.01927 27.7865 9.37083 27.6823 9.70937 27.5781C10.074 27.474 10.4125 27.3568 10.725 27.2266C11.0635 27.0964 11.337 26.9141 11.5453 26.6797C11.7536 26.4453 11.988 26.263 12.2484 26.1328C12.6651 25.8203 12.9516 25.5729 13.1078 25.3906C13.2901 25.1823 13.4854 25.013 13.6937 24.8828C13.876 24.6484 13.9802 24.5312 14.0062 24.5312C14.0323 24.5312 14.0583 24.5182 14.0844 24.4922C14.2667 24.2839 14.4359 24.1016 14.5922 23.9453C14.7745 23.763 14.9568 23.5677 15.1391 23.3594C15.4255 23.2292 15.6599 23.0599 15.8422 22.8516C16.0505 22.7734 16.2198 22.6693 16.35 22.5391C16.5062 22.4089 16.6625 22.2786 16.8187 22.1484C17.0271 21.9922 17.1703 21.875 17.2484 21.7969C17.3526 21.6927 17.4437 21.5885 17.5219 21.4844C17.626 21.3802 17.7302 21.263 17.8344 21.1328C17.8865 21.0807 17.9646 21.0286 18.0687 20.9766C18.1729 20.8984 18.2771 20.7943 18.3812 20.6641C18.4333 20.5859 18.4854 20.4818 18.5375 20.3516C18.5896 20.2214 18.6807 20.1562 18.8109 20.1562C18.9672 20.1302 19.1365 20.2083 19.3187 20.3906C19.501 20.5469 19.5922 20.7161 19.5922 20.8984C19.3578 21.263 19.2276 21.4844 19.2016 21.5625C19.0193 21.8229 18.824 22.0703 18.6156 22.3047C18.4073 22.5391 18.199 22.7995 17.9906 23.0859C17.7823 23.3203 17.574 23.5677 17.3656 23.8281C17.1573 24.0625 16.962 24.3229 16.7797 24.6094C16.5974 24.8958 16.3891 25.1562 16.1547 25.3906C15.9464 25.599 15.725 25.8333 15.4906 26.0938C15.1521 26.4583 14.8135 26.7969 14.475 27.1094C14.1625 27.4219 13.863 27.7995 13.5766 28.2422C13.4464 28.3724 13.3161 28.5026 13.1859 28.6328C13.0557 28.737 12.9255 28.8542 12.7953 28.9844C12.6651 29.0625 12.5349 29.1536 12.4047 29.2578C12.3005 29.3359 12.1833 29.4141 12.0531 29.4922C11.5323 29.6745 10.9984 29.9089 10.4516 30.1953C9.93073 30.5078 9.34479 30.7552 8.69375 30.9375C8.40729 31.0156 8.10781 31.1068 7.79531 31.2109C7.50885 31.3151 7.18333 31.3542 6.81875 31.3281C6.76667 31.3021 6.70156 31.2891 6.62344 31.2891C6.54531 31.2891 6.46719 31.276 6.38906 31.25C6.23281 31.224 6.06354 31.1719 5.88125 31.0938C5.725 31.0156 5.54271 30.9635 5.33437 30.9375C5.20417 30.9375 5.08698 30.9505 4.98281 30.9766C4.87864 31.0286 4.76146 31.0547 4.63125 31.0547C4.05833 30.6901 3.58958 30.3776 3.225 30.1172C2.88646 29.8828 2.57396 29.5964 2.2875 29.2578C2.07917 28.9193 1.93594 28.7109 1.85781 28.6328C1.77969 28.5286 1.68854 28.4115 1.58437 28.2812C1.48021 28.125 1.37604 27.9688 1.27187 27.8125C1.16771 27.6302 1.06354 27.4349 0.959373 27.2266C0.959373 27.1224 0.920311 27.0312 0.842186 26.9531C0.790103 26.875 0.738019 26.7839 0.685936 26.6797C0.555728 26.237 0.490623 25.7812 0.490623 25.3125C0.490623 24.8177 0.503644 24.3359 0.529686 23.8672C0.555728 23.737 0.555728 23.6198 0.529686 23.5156C0.503644 23.3854 0.490623 23.2552 0.490623 23.125C0.490623 22.9167 0.529686 22.6953 0.607811 22.4609C0.685936 22.2266 0.75104 22.0052 0.803123 21.7969C0.959373 21.224 1.12864 20.6901 1.31094 20.1953C1.51927 19.6745 1.75364 19.1927 2.01406 18.75C2.24844 18.4375 2.41771 18.138 2.52187 17.8516C2.65208 17.5651 2.78229 17.2656 2.9125 16.9531C3.04271 16.6667 3.17292 16.3932 3.30312 16.1328C3.43333 15.8464 3.57656 15.5599 3.73281 15.2734C3.86302 15.013 3.99323 14.7526 4.12344 14.4922C4.27969 14.2318 4.475 13.9974 4.70937 13.7891C4.7875 13.5026 4.90469 13.2682 5.06094 13.0859C5.21719 12.8776 5.37344 12.6693 5.52969 12.4609C5.7901 12.0964 6.05052 11.7578 6.31094 11.4453C6.59739 11.1328 6.84479 10.7812 7.05312 10.3906C7.26146 10.2344 7.44375 10.0651 7.6 9.88281C7.78229 9.70052 7.95156 9.51823 8.10781 9.33594C8.2901 9.1276 8.45937 8.94531 8.61562 8.78906C8.79792 8.60677 8.98021 8.41146 9.1625 8.20312C9.26667 8.125 9.35781 8.04688 9.43594 7.96875C9.5401 7.86458 9.63125 7.77344 9.70937 7.69531C9.89167 7.48698 10.074 7.30469 10.2562 7.14844C10.4385 6.99219 10.6339 6.83594 10.8422 6.67969C11.0766 6.57552 11.2979 6.43229 11.5062 6.25C11.7406 6.01562 11.962 5.78125 12.1703 5.54688C12.4047 5.28646 12.6391 5.05208 12.8734 4.84375C13.238 4.47917 13.6156 4.1276 14.0062 3.78906C14.3969 3.42448 14.8135 3.09896 15.2562 2.8125C15.5167 2.52604 15.8292 2.29167 16.1937 2.10938C16.5583 1.90104 16.9229 1.70573 17.2875 1.52344C17.4958 1.44531 17.6651 1.38021 17.7953 1.32812C17.9516 1.25 18.1208 1.15885 18.3031 1.05469C18.5896 0.872396 18.7979 0.78125 18.9281 0.78125C19.0583 0.755208 19.1625 0.690104 19.2406 0.585938C19.5531 0.585938 19.8266 0.546875 20.0609 0.46875C20.2953 0.364583 20.5557 0.351562 20.8422 0.429688C20.9464 0.455729 21.0375 0.494792 21.1156 0.546875C21.1937 0.572917 21.2719 0.598958 21.35 0.625C21.8448 0.677083 22.1964 0.755208 22.4047 0.859375C22.613 0.963542 22.8083 1.06771 22.9906 1.17188C23.199 1.25 23.4333 1.30208 23.6937 1.32812ZM40.9391 18.7109C41.0693 18.737 41.1474 18.7891 41.1734 18.8672C41.2255 18.9453 41.3036 18.9844 41.4078 18.9844C41.4339 19.1146 41.4208 19.2188 41.3687 19.2969C41.3427 19.375 41.3036 19.4531 41.2516 19.5312C41.1995 19.5833 41.1474 19.6484 41.0953 19.7266C41.0693 19.7786 41.0693 19.8568 41.0953 19.9609C40.8609 20.1172 40.5745 20.2214 40.2359 20.2734C39.8974 20.2995 39.637 20.4297 39.4547 20.6641C39.012 20.8724 38.5302 21.0156 38.0094 21.0938C37.5146 21.1458 36.9937 21.224 36.4469 21.3281C36.1865 21.5104 36.0042 21.6146 35.9 21.6406C35.8219 21.6667 35.7307 21.7057 35.6266 21.7578C35.3661 21.6536 35.0927 21.6016 34.8062 21.6016C34.5198 21.6016 34.2333 21.5625 33.9469 21.4844C33.7906 21.5365 33.6344 21.5625 33.4781 21.5625C33.3479 21.5625 33.2047 21.5885 33.0484 21.6406C32.9443 21.849 32.8922 22.0833 32.8922 22.3438C32.8922 22.6042 32.8531 22.8385 32.775 23.0469L32.5406 23.5156C32.5146 23.6458 32.4885 23.776 32.4625 23.9062C32.4625 24.0104 32.4365 24.1276 32.3844 24.2578C32.3323 24.3359 32.2672 24.4271 32.1891 24.5312C32.137 24.6354 32.1109 24.7526 32.1109 24.8828C31.9286 25.0911 31.7984 25.3385 31.7203 25.625C31.6422 25.8854 31.499 26.1068 31.2906 26.2891C31.2125 26.5495 31.0823 26.7578 30.9 26.9141C30.7437 27.0703 30.5875 27.2526 30.4312 27.4609C30.1448 27.8516 29.8844 28.1901 29.65 28.4766C29.4417 28.763 29.1552 29.0104 28.7906 29.2188C28.6604 29.4271 28.5042 29.5703 28.3219 29.6484C28.1656 29.8047 28.0615 29.9349 28.0094 30.0391C27.775 30.1693 27.5146 30.3255 27.2281 30.5078C26.9417 30.6901 26.6422 30.8203 26.3297 30.8984C25.887 31.0026 25.4573 30.9896 25.0406 30.8594C24.624 30.7292 24.2333 30.5469 23.8687 30.3125C23.6344 30.3385 23.4391 30.2865 23.2828 30.1562C23.1526 30.0521 22.9833 29.974 22.775 29.9219C22.4885 29.6615 22.176 29.4271 21.8375 29.2188C21.499 29.0104 21.2516 28.724 21.0953 28.3594C21.0432 28.0729 20.9911 27.7865 20.9391 27.5C20.8609 27.2135 20.7958 26.9531 20.7437 26.7188C20.6917 26.4844 20.6917 26.237 20.7437 25.9766C20.7698 25.7161 20.7698 25.4557 20.7437 25.1953C20.7437 24.9089 20.7437 24.6745 20.7437 24.4922C20.7177 24.2839 20.7698 24.0365 20.9 23.75C21.0562 23.4115 21.1604 23.138 21.2125 22.9297C21.2646 22.6953 21.3167 22.5 21.3687 22.3438C21.4469 22.2135 21.525 22.0703 21.6031 21.9141C21.6812 21.7578 21.7724 21.6146 21.8766 21.4844C22.0328 21.25 22.2151 21.0156 22.4234 20.7812C22.6318 20.5469 22.8401 20.3255 23.0484 20.1172C23.2047 19.9089 23.3479 19.7396 23.4781 19.6094C23.6865 19.401 23.9078 19.2057 24.1422 19.0234C24.3766 18.8411 24.6109 18.6328 24.8453 18.3984C24.8974 18.3203 24.9625 18.2552 25.0406 18.2031C25.1187 18.151 25.1969 18.099 25.275 18.0469C25.5354 17.8906 25.7698 17.7604 25.9781 17.6562C26.2125 17.5521 26.4729 17.4349 26.7594 17.3047C26.9677 17.2005 27.163 17.1354 27.3453 17.1094C27.5536 17.0573 27.788 17.0052 28.0484 16.9531C28.2307 16.9531 28.387 16.9531 28.5172 16.9531C28.6474 16.9531 28.7776 16.9271 28.9078 16.875C28.8297 16.6667 28.9208 16.5234 29.1812 16.4453C29.4417 16.3672 29.637 16.3411 29.7672 16.3672C30.0276 16.3672 30.2359 16.4323 30.3922 16.5625C30.5484 16.6667 30.6917 16.7969 30.8219 16.9531C31.1083 17.1615 31.3948 17.4349 31.6812 17.7734C31.7333 17.8255 31.7984 17.8646 31.8766 17.8906C31.9547 17.9167 32.0198 17.9557 32.0719 18.0078C32.176 18.138 32.2411 18.2812 32.2672 18.4375C32.3193 18.5938 32.4104 18.737 32.5406 18.8672C32.6187 18.9193 32.6969 18.9844 32.775 19.0625C32.8531 19.1406 32.9052 19.2448 32.9312 19.375C33.0615 19.4271 33.1786 19.4792 33.2828 19.5312C33.413 19.5573 33.5432 19.5833 33.6734 19.6094C33.8036 19.6615 33.9339 19.6745 34.0641 19.6484C34.2203 19.6224 34.3896 19.6224 34.5719 19.6484C34.7021 19.6745 34.8193 19.7135 34.9234 19.7656C35.0276 19.7917 35.1448 19.8047 35.275 19.8047C35.4833 19.7786 35.6917 19.7266 35.9 19.6484C36.1344 19.5703 36.3948 19.5573 36.6812 19.6094C37.0719 19.7135 37.4755 19.6745 37.8922 19.4922C38.3349 19.3099 38.7776 19.1927 39.2203 19.1406C39.3245 19.1406 39.4156 19.1406 39.4937 19.1406C39.5719 19.1146 39.663 19.1016 39.7672 19.1016C39.8974 18.9974 40.0667 18.9193 40.275 18.8672C40.4833 18.8151 40.7047 18.763 40.9391 18.7109ZM29.7672 19.8828C29.5068 19.6484 29.3505 19.5052 29.2984 19.4531C29.2724 19.375 29.2333 19.3229 29.1812 19.2969C29.0771 19.1927 28.9469 19.1276 28.7906 19.1016C28.6344 19.0755 28.4911 19.0495 28.3609 19.0234C27.9443 18.9453 27.5927 18.9974 27.3062 19.1797C27.0458 19.3359 26.7854 19.4922 26.525 19.6484C26.1083 19.9089 25.7437 20.2344 25.4312 20.625C25.3531 20.7552 25.262 20.8984 25.1578 21.0547C25.0797 21.2109 25.0146 21.3802 24.9625 21.5625C24.8583 21.7708 24.7672 21.9661 24.6891 22.1484C24.6109 22.3047 24.5458 22.5 24.4937 22.7344C24.3635 22.9948 24.2854 23.2161 24.2594 23.3984C24.2333 23.5547 24.2073 23.6979 24.1812 23.8281C24.1552 24.0885 24.1031 24.362 24.025 24.6484C23.9729 24.9349 23.9469 25.1823 23.9469 25.3906C23.9729 25.4688 24.012 25.5729 24.0641 25.7031C24.1161 25.8333 24.1682 25.9245 24.2203 25.9766C24.2724 26.1068 24.3245 26.25 24.3766 26.4062C24.4547 26.5625 24.5198 26.6797 24.5719 26.7578C24.7021 26.9401 24.8714 27.0573 25.0797 27.1094C25.288 27.1615 25.5224 27.2266 25.7828 27.3047C26.0693 27.4609 26.2646 27.526 26.3687 27.5C26.4729 27.474 26.551 27.4609 26.6031 27.4609C26.9417 27.4089 27.2411 27.2656 27.5016 27.0312C27.762 26.7969 28.0224 26.6146 28.2828 26.4844C28.4911 26.1719 28.7125 25.8464 28.9469 25.5078C29.2073 25.1432 29.4417 24.7786 29.65 24.4141C29.7281 24.3099 29.7932 24.1927 29.8453 24.0625C29.8974 23.9323 29.9495 23.8151 30.0016 23.7109C30.1839 23.5026 30.262 23.3854 30.2359 23.3594C30.2359 23.3333 30.249 23.2943 30.275 23.2422C30.4573 22.8516 30.5354 22.5521 30.5094 22.3438C30.4833 22.1354 30.4833 21.9271 30.5094 21.7188C30.3792 21.4323 30.262 21.1198 30.1578 20.7812C30.0797 20.4427 29.9495 20.1432 29.7672 19.8828ZM40.3328 25.1953C40.5411 25.0651 40.7104 24.8958 40.8406 24.6875C40.9708 24.4792 41.1271 24.2708 41.3094 24.0625C41.6479 23.6719 42.0125 23.3464 42.4031 23.0859C42.5854 22.8255 42.8068 22.6302 43.0672 22.5C43.3536 22.3438 43.575 22.1224 43.7312 21.8359C43.7833 21.7578 43.8224 21.6797 43.8484 21.6016C43.9005 21.5234 43.9526 21.4453 44.0047 21.3672C44.4734 20.7161 45.0073 20.1432 45.6062 19.6484C45.7625 19.5182 45.9057 19.388 46.0359 19.2578C46.1922 19.1276 46.3745 18.9974 46.5828 18.8672C46.8172 18.737 47.0385 18.5677 47.2469 18.3594C47.4812 18.151 47.7286 17.9948 47.9891 17.8906C48.1714 17.8125 48.3406 17.7604 48.4969 17.7344C48.6531 17.6823 48.8224 17.6302 49.0047 17.5781C49.187 17.526 49.3432 17.487 49.4734 17.4609C49.6297 17.4089 49.799 17.4089 49.9812 17.4609C50.3979 17.6432 50.7104 17.9948 50.9187 18.5156C50.9708 18.6458 50.9448 18.9323 50.8406 19.375C50.7625 19.7917 50.6453 20.2604 50.4891 20.7812C50.3589 21.276 50.2156 21.7578 50.0594 22.2266C49.9031 22.6953 49.799 23.0339 49.7469 23.2422C49.6948 23.4505 49.6818 23.5677 49.7078 23.5938C49.7339 23.5938 49.7469 23.6198 49.7469 23.6719C49.6948 23.8021 49.6557 23.9193 49.6297 24.0234C49.6036 24.1276 49.5776 24.2448 49.5516 24.375C49.4995 24.5833 49.4604 24.8698 49.4344 25.2344C49.4083 25.5729 49.4214 25.8464 49.4734 26.0547C49.7599 26.0286 49.9031 26.0026 49.9031 25.9766C49.9292 25.9505 49.9682 25.9375 50.0203 25.9375C50.0984 25.9115 50.1766 25.9115 50.2547 25.9375C50.3589 25.9375 50.45 25.9245 50.5281 25.8984C50.8146 25.8203 51.075 25.7161 51.3094 25.5859C51.5437 25.4297 51.7651 25.2474 51.9734 25.0391C52.4422 24.8307 52.8719 24.6224 53.2625 24.4141C53.6271 24.1536 53.9135 23.9714 54.1219 23.8672C54.3562 23.737 54.6948 23.5677 55.1375 23.3594C55.2937 23.1771 55.5151 23.0208 55.8016 22.8906C56.1141 22.7344 56.3745 22.5651 56.5828 22.3828C56.6349 22.3307 56.7 22.2656 56.7781 22.1875C56.8562 22.0833 56.9344 22.0573 57.0125 22.1094C57.1427 22.2396 57.2208 22.3828 57.2469 22.5391C57.299 22.6693 57.312 22.7604 57.2859 22.8125C57.0776 23.0208 56.9604 23.1771 56.9344 23.2812C56.9344 23.3854 56.9083 23.4635 56.8562 23.5156C56.726 23.6458 56.5307 23.763 56.2703 23.8672C56.0359 23.9714 55.8927 24.0625 55.8406 24.1406C55.8146 24.1927 55.7755 24.2448 55.7234 24.2969C55.6714 24.349 55.5932 24.4141 55.4891 24.4922C55.4109 24.5443 55.3458 24.5964 55.2937 24.6484C55.2417 24.7266 55.1635 24.7786 55.0594 24.8047C54.9812 24.8047 54.9031 24.8177 54.825 24.8438C54.6687 24.974 54.5385 25.0911 54.4344 25.1953C54.3302 25.2995 54.213 25.4167 54.0828 25.5469C53.8745 25.7552 53.7443 25.9115 53.6922 26.0156C53.6401 26.0938 53.4969 26.2109 53.2625 26.3672C53.1323 26.4453 53.0021 26.5234 52.8719 26.6016C52.7417 26.6797 52.6115 26.7578 52.4812 26.8359C52.1167 27.0182 51.7521 27.2396 51.3875 27.5C51.0229 27.7604 50.6583 28.0208 50.2937 28.2812C50.0333 28.4375 49.7599 28.5807 49.4734 28.7109C49.213 28.8151 48.9656 28.9453 48.7312 29.1016C48.6271 29.1016 48.549 29.1016 48.4969 29.1016C48.4708 29.0755 48.4057 29.0885 48.3016 29.1406C48.1714 29.0625 48.0411 29.0625 47.9109 29.1406C47.7807 29.1927 47.6505 29.1927 47.5203 29.1406C47.2599 28.9323 47.0776 28.8021 46.9734 28.75C46.8953 28.6979 46.8302 28.6328 46.7781 28.5547C46.726 28.4245 46.7 28.2812 46.7 28.125C46.726 27.9688 46.7 27.8385 46.6219 27.7344C46.6219 27.1615 46.6349 26.6146 46.6609 26.0938C46.713 25.5729 46.8042 25.026 46.9344 24.4531C46.9604 24.2708 47.0125 24.0234 47.0906 23.7109C47.1687 23.3724 47.2339 23.0469 47.2859 22.7344C47.338 22.4219 47.3771 22.1484 47.4031 21.9141C47.4292 21.6797 47.4031 21.5365 47.325 21.4844C47.0385 21.6406 46.7391 21.875 46.4266 22.1875C46.1401 22.5 45.8667 22.7604 45.6062 22.9688C45.3979 23.125 45.1896 23.2682 44.9812 23.3984C44.799 23.5286 44.6036 23.6719 44.3953 23.8281C44.213 23.9583 44.0568 24.0885 43.9266 24.2188C43.7964 24.349 43.6531 24.5052 43.4969 24.6875C43.3146 24.8698 43.1453 25.0521 42.9891 25.2344C42.8328 25.3906 42.6505 25.5469 42.4422 25.7031C42.338 25.8073 42.2339 25.8984 42.1297 25.9766C42.0516 26.0286 41.9734 26.0938 41.8953 26.1719C41.7651 26.3021 41.6349 26.4323 41.5047 26.5625C41.4005 26.6667 41.2573 26.7578 41.075 26.8359C40.9187 27.0443 40.7104 27.2786 40.45 27.5391C40.2156 27.7995 39.9682 28.0859 39.7078 28.3984C39.4734 28.6849 39.2391 28.9714 39.0047 29.2578C38.7703 29.5443 38.588 29.8047 38.4578 30.0391C38.1453 30.2995 37.8068 30.5208 37.4422 30.7031C37.1036 30.9115 36.687 30.9375 36.1922 30.7812C35.9318 30.625 35.7625 30.4948 35.6844 30.3906C35.6062 30.2865 35.5151 30.2083 35.4109 30.1562C35.437 29.8698 35.463 29.5964 35.4891 29.3359C35.5151 29.0755 35.5932 28.8021 35.7234 28.5156C35.7495 28.4635 35.7885 28.4115 35.8406 28.3594C35.8667 28.2812 35.9057 28.2031 35.9578 28.125C36.088 27.8906 36.1792 27.6302 36.2312 27.3438C36.2573 27.0573 36.3354 26.7839 36.4656 26.5234C36.6219 26.263 36.726 26.0547 36.7781 25.8984C36.8042 25.7161 36.8562 25.5599 36.9344 25.4297C36.9865 25.2995 37.0646 25.1823 37.1687 25.0781C37.2469 24.9479 37.312 24.8177 37.3641 24.6875C37.4161 24.5573 37.5073 24.4141 37.6375 24.2578C37.7677 24.0755 37.8589 23.9193 37.9109 23.7891C37.9891 23.5026 38.0802 23.2161 38.1844 22.9297C38.2885 22.6432 38.4057 22.3568 38.5359 22.0703C38.588 21.888 38.6401 21.7188 38.6922 21.5625C38.7443 21.3802 38.8094 21.2109 38.8875 21.0547C39.0177 20.7682 39.1479 20.4948 39.2781 20.2344C39.4083 19.9479 39.5385 19.6615 39.6687 19.375C39.7469 19.2188 39.812 19.0885 39.8641 18.9844C39.9422 18.8542 40.0333 18.724 40.1375 18.5938C40.2156 18.4635 40.2807 18.3333 40.3328 18.2031C40.4109 18.0729 40.4891 17.9427 40.5672 17.8125C40.6453 17.6823 40.7104 17.5391 40.7625 17.3828C40.8406 17.2005 40.9448 17.0312 41.075 16.875C41.2573 16.6667 41.4005 16.4714 41.5047 16.2891C41.6089 16.1068 41.7781 15.9896 42.0125 15.9375C42.1167 15.9896 42.2208 15.9896 42.325 15.9375C42.4552 15.8854 42.5724 15.8464 42.6766 15.8203C42.8068 15.7682 42.924 15.7422 43.0281 15.7422C43.1323 15.7161 43.2234 15.7552 43.3016 15.8594C43.6401 16.0677 43.8875 16.25 44.0437 16.4062C44.2 16.5625 44.3042 16.7057 44.3562 16.8359C44.4865 17.0703 44.4995 17.3177 44.3953 17.5781C44.2911 17.8125 44.1089 18.0208 43.8484 18.2031C43.7443 18.6458 43.562 19.0625 43.3016 19.4531C43.0411 19.8438 42.8068 20.2214 42.5984 20.5859C42.5464 20.7161 42.4943 20.8464 42.4422 20.9766C42.3901 21.1068 42.338 21.237 42.2859 21.3672C42.1297 21.7318 41.9604 22.0964 41.7781 22.4609C41.6219 22.8255 41.4396 23.1771 41.2312 23.5156C41.1271 23.724 41.0359 23.8932 40.9578 24.0234C40.8797 24.1536 40.8016 24.2708 40.7234 24.375C40.6453 24.4531 40.5802 24.5573 40.5281 24.6875C40.476 24.8177 40.4109 24.987 40.3328 25.1953ZM66.4453 20.2344C66.4974 20.2865 66.5625 20.2474 66.6406 20.1172C66.7448 19.9609 66.8229 19.8438 66.875 19.7656C66.9271 19.6354 66.9661 19.5052 66.9922 19.375C67.0443 19.2448 67.0964 19.1146 67.1484 18.9844C67.3047 18.6979 67.5 18.3984 67.7344 18.0859C67.9948 17.7734 68.1901 17.474 68.3203 17.1875C68.3724 17.1354 68.4245 17.0964 68.4766 17.0703C68.5547 17.0182 68.6198 16.9531 68.6719 16.875C68.8802 16.849 69.0234 16.8229 69.1016 16.7969C69.1797 16.7708 69.2578 16.7318 69.3359 16.6797C69.6224 16.7578 69.8047 16.9792 69.8828 17.3438C69.8568 17.5521 69.7656 17.7214 69.6094 17.8516C69.4792 17.9557 69.388 18.099 69.3359 18.2812C69.2839 18.3854 69.2578 18.4896 69.2578 18.5938C69.2839 18.6979 69.2708 18.8021 69.2188 18.9062C69.0885 19.349 68.9062 19.7656 68.6719 20.1562C68.4635 20.5469 68.2812 20.9635 68.125 21.4062C67.9948 21.6667 67.8646 21.9271 67.7344 22.1875C67.6302 22.4479 67.5391 22.7214 67.4609 23.0078C67.1745 23.5286 66.901 24.0755 66.6406 24.6484C66.3802 25.2214 66.1068 25.8073 65.8203 26.4062C66.0547 26.3542 66.263 26.263 66.4453 26.1328C66.6276 25.9766 66.8229 25.8333 67.0312 25.7031C67.1615 25.651 67.2786 25.612 67.3828 25.5859C67.487 25.5339 67.6042 25.4818 67.7344 25.4297C67.9688 25.2734 68.125 25.1693 68.2031 25.1172C68.3073 25.0651 68.4115 25.013 68.5156 24.9609C68.5938 24.9089 68.6719 24.8568 68.75 24.8047C68.8281 24.7266 68.9193 24.6615 69.0234 24.6094C69.0755 24.5573 69.1406 24.5182 69.2188 24.4922C69.3229 24.4661 69.401 24.4271 69.4531 24.375C69.5833 24.3229 69.7005 24.2578 69.8047 24.1797C69.9089 24.1016 70.026 24.0234 70.1562 23.9453C70.3125 23.8672 70.4427 23.7891 70.5469 23.7109C70.6771 23.6328 70.8333 23.5677 71.0156 23.5156C71.0938 23.4896 71.1719 23.4635 71.25 23.4375C71.3281 23.3854 71.4062 23.3333 71.4844 23.2812C71.5625 23.2552 71.6406 23.2161 71.7188 23.1641C71.7969 23.112 71.862 23.0729 71.9141 23.0469C72.0703 22.9948 72.1615 22.9557 72.1875 22.9297C72.2135 22.9036 72.2526 22.8776 72.3047 22.8516C72.5651 22.7734 72.7083 22.7214 72.7344 22.6953C72.7865 22.6693 72.8385 22.6302 72.8906 22.5781C73.2031 22.3698 73.4375 22.2526 73.5938 22.2266C73.75 22.1745 73.9974 22.0443 74.3359 21.8359C74.4922 21.862 74.6354 21.875 74.7656 21.875C74.8958 21.849 75.013 21.888 75.1172 21.9922C75.013 22.487 74.8177 22.8255 74.5312 23.0078C74.2708 23.1641 73.9844 23.3073 73.6719 23.4375C73.2292 23.8281 72.8516 24.1406 72.5391 24.375C72.2266 24.5833 71.8229 24.8438 71.3281 25.1562C71.0156 25.2865 70.7422 25.4297 70.5078 25.5859C70.2734 25.5859 70.0911 25.625 69.9609 25.7031C69.8568 25.7812 69.7396 25.8594 69.6094 25.9375C69.5052 25.9896 69.388 26.0286 69.2578 26.0547C69.1536 26.0807 69.0495 26.1198 68.9453 26.1719C68.6849 26.3281 68.5156 26.4193 68.4375 26.4453C68.3854 26.4714 68.3333 26.5104 68.2812 26.5625C68.0208 26.901 67.7734 27.1224 67.5391 27.2266C67.3047 27.3307 67.0964 27.487 66.9141 27.6953C66.4714 27.8255 66.1068 28.0339 65.8203 28.3203C65.5339 28.6068 65.1953 28.8411 64.8047 29.0234C64.5964 29.6224 64.4141 30.2214 64.2578 30.8203C64.1276 31.4193 63.9583 32.0052 63.75 32.5781C63.5417 33.1771 63.3203 33.776 63.0859 34.375C62.8776 34.974 62.6953 35.5859 62.5391 36.2109C62.2526 36.7057 62.0182 37.2396 61.8359 37.8125C61.6536 38.3854 61.4323 38.9583 61.1719 39.5312C60.9635 39.6875 60.8073 39.9089 60.7031 40.1953C60.625 40.4818 60.4688 40.7161 60.2344 40.8984C60.1042 41.1849 59.9219 41.4193 59.6875 41.6016C59.4531 41.8099 59.2318 42.0182 59.0234 42.2266C58.9714 42.2786 58.9193 42.3307 58.8672 42.3828C58.8151 42.4609 58.763 42.5391 58.7109 42.6172C58.3984 42.9297 58.0599 43.2422 57.6953 43.5547C57.3307 43.8932 57.0052 44.2448 56.7188 44.6094C56.4323 44.7917 56.1719 44.987 55.9375 45.1953C55.7031 45.4036 55.4688 45.625 55.2344 45.8594C55.1042 45.9115 55 45.9505 54.9219 45.9766C54.8177 46.0286 54.7135 46.0156 54.6094 45.9375C54.349 46.0156 54.0755 46.0286 53.7891 45.9766C53.5026 45.9245 53.3854 45.7552 53.4375 45.4688C53.2812 45.3385 53.1901 45.2214 53.1641 45.1172C53.138 45.0391 53.099 44.9479 53.0469 44.8438C53.151 44.6354 53.151 44.4401 53.0469 44.2578C52.9427 44.1016 52.8906 43.9583 52.8906 43.8281C52.8906 43.4896 52.9297 43.1641 53.0078 42.8516C53.0599 42.513 53.151 42.2135 53.2812 41.9531C53.3854 41.7188 53.5026 41.4583 53.6328 41.1719C53.7891 40.8073 53.9323 40.4557 54.0625 40.1172C54.1667 39.8047 54.2839 39.4661 54.4141 39.1016C54.5964 38.8151 54.7266 38.5026 54.8047 38.1641C54.8568 37.8516 54.9479 37.5391 55.0781 37.2266C55.1823 37.0182 55.2865 36.8099 55.3906 36.6016C55.5208 36.4193 55.599 36.224 55.625 36.0156C55.8333 35.625 56.0547 35.2734 56.2891 34.9609C56.5495 34.6484 56.7708 34.2969 56.9531 33.9062C57.6302 32.9427 58.4115 32.0964 59.2969 31.3672C60.1823 30.6641 61.0807 29.974 61.9922 29.2969C62.0964 29.1667 62.1615 29.0885 62.1875 29.0625C62.2396 29.0104 62.2786 28.9714 62.3047 28.9453C62.3307 28.9193 62.3698 28.8932 62.4219 28.8672C62.474 28.8411 62.5651 28.763 62.6953 28.6328C62.7474 28.6068 62.7734 28.5547 62.7734 28.4766C62.7995 28.3984 62.8516 28.3203 62.9297 28.2422C63.138 27.6693 63.3854 27.0312 63.6719 26.3281C63.9583 25.599 64.1667 25 64.2969 24.5312C64.1667 24.5833 64.0625 24.6745 63.9844 24.8047C63.9323 24.9349 63.8672 25.0391 63.7891 25.1172C63.737 25.1953 63.6719 25.2604 63.5938 25.3125C63.5156 25.3646 63.4505 25.4167 63.3984 25.4688C63.3464 25.5208 63.2812 25.5859 63.2031 25.6641C63.125 25.7161 63.0599 25.7812 63.0078 25.8594C62.8255 26.0156 62.6693 26.1589 62.5391 26.2891C62.4349 26.3932 62.3307 26.4974 62.2266 26.6016C62.1484 26.7057 62.0443 26.8229 61.9141 26.9531C61.8099 27.0573 61.6667 27.1875 61.4844 27.3438C61.276 27.6302 61.0547 27.9036 60.8203 28.1641C60.612 28.3984 60.3646 28.5938 60.0781 28.75C59.6875 29.0365 59.2839 29.2708 58.8672 29.4531C58.4505 29.6354 58.0599 29.7917 57.6953 29.9219C57.513 29.974 57.3307 30.026 57.1484 30.0781C56.9922 30.1562 56.849 30.1953 56.7188 30.1953C56.6667 30.2214 56.6016 30.2214 56.5234 30.1953C56.4453 30.1953 56.3672 30.1953 56.2891 30.1953C55.8724 30.1953 55.5208 30.1432 55.2344 30.0391C55.1562 29.987 55.0911 29.9479 55.0391 29.9219C54.987 29.8698 54.9349 29.7917 54.8828 29.6875C54.8307 29.6354 54.7656 29.5703 54.6875 29.4922C54.6094 29.388 54.5443 29.2969 54.4922 29.2188C54.4401 29.0885 54.4141 28.9583 54.4141 28.8281C54.4141 28.6719 54.388 28.5286 54.3359 28.3984C54.2839 28.138 54.2188 27.9036 54.1406 27.6953C54.0625 27.4609 54.0495 27.2266 54.1016 26.9922C54.1276 26.9141 54.1536 26.849 54.1797 26.7969C54.2057 26.7188 54.2057 26.6406 54.1797 26.5625C54.1536 26.4844 54.1276 26.4062 54.1016 26.3281C54.0495 26.25 54.0104 26.1719 53.9844 26.0938C53.9323 26.0156 53.8932 25.9375 53.8672 25.8594C53.8151 25.7552 53.7891 25.6641 53.7891 25.5859C53.763 25.4557 53.7891 25.3255 53.8672 25.1953C53.9193 25.0391 53.9193 24.9089 53.8672 24.8047C53.9453 24.6224 54.0234 24.4401 54.1016 24.2578C54.1536 24.0755 54.2448 23.9062 54.375 23.75C54.5573 23.4896 54.6875 23.2812 54.7656 23.125C54.8177 22.9427 54.8958 22.7865 55 22.6562C55.1302 22.4219 55.2604 22.2135 55.3906 22.0312C55.5469 21.849 55.6901 21.6536 55.8203 21.4453C56.3151 20.5859 56.862 19.8047 57.4609 19.1016C57.5651 19.0495 57.6562 19.0104 57.7344 18.9844C57.8125 18.9583 57.8646 18.8932 57.8906 18.7891C58.5156 18.5026 59.0885 18.1901 59.6094 17.8516C59.8958 17.7734 60.1432 17.6432 60.3516 17.4609C60.5859 17.2526 60.8464 17.0964 61.1328 16.9922C61.3672 16.888 61.6146 16.7578 61.875 16.6016C62.1354 16.4453 62.4089 16.3542 62.6953 16.3281C62.9557 16.3281 63.151 16.2891 63.2812 16.2109C63.4115 16.1328 63.5417 16.0547 63.6719 15.9766C64.0625 15.7682 64.4792 15.6771 64.9219 15.7031C65.1302 15.9115 65.3385 16.0677 65.5469 16.1719C65.7812 16.276 65.9635 16.4453 66.0938 16.6797C66.1458 16.7839 66.1719 16.9141 66.1719 17.0703C66.1979 17.2266 66.224 17.3958 66.25 17.5781C66.3021 17.7083 66.3411 17.8516 66.3672 18.0078C66.4193 18.138 66.4583 18.2682 66.4844 18.3984C66.5104 18.7109 66.4974 19.0234 66.4453 19.3359C66.4193 19.6484 66.4193 19.9479 66.4453 20.2344ZM64.375 18.5938C64.2708 18.6719 64.1536 18.7109 64.0234 18.7109C63.9193 18.7109 63.8151 18.737 63.7109 18.7891C63.6589 18.8411 63.5938 18.8932 63.5156 18.9453C63.4635 18.9714 63.4115 19.0104 63.3594 19.0625C63.125 19.1927 62.8646 19.3099 62.5781 19.4141C62.3177 19.4922 62.0833 19.5964 61.875 19.7266C61.7448 19.8307 61.6406 19.9479 61.5625 20.0781C61.4844 20.1823 61.3802 20.2734 61.25 20.3516C61.0938 20.4557 60.9245 20.5469 60.7422 20.625C60.5859 20.7031 60.4427 20.8073 60.3125 20.9375C60.2344 21.0156 60.1693 21.0938 60.1172 21.1719C60.0911 21.25 60.013 21.2891 59.8828 21.2891C59.5964 21.8359 59.2448 22.3307 58.8281 22.7734C58.4115 23.2161 58.0729 23.724 57.8125 24.2969C57.6823 24.349 57.5911 24.4401 57.5391 24.5703C57.513 24.7005 57.4609 24.8307 57.3828 24.9609C57.0964 25.4818 56.9792 25.8854 57.0312 26.1719C57.1094 26.4323 57.1615 26.6927 57.1875 26.9531C57.3438 27.1615 57.5521 27.2266 57.8125 27.1484C58.099 27.0443 58.3464 26.9271 58.5547 26.7969C58.8151 26.6146 59.0625 26.4193 59.2969 26.2109C59.5573 25.9766 59.8177 25.7422 60.0781 25.5078C60.3385 25.2995 60.5729 25.0781 60.7812 24.8438C61.0156 24.5833 61.237 24.3359 61.4453 24.1016C61.5495 23.9714 61.6536 23.8672 61.7578 23.7891C61.862 23.7109 61.9661 23.6068 62.0703 23.4766C62.2005 23.3464 62.3177 23.2292 62.4219 23.125C62.526 22.9948 62.6432 22.8906 62.7734 22.8125C62.9818 22.526 63.1641 22.2526 63.3203 21.9922C63.5026 21.7318 63.6979 21.4844 63.9062 21.25C64.0365 20.9115 64.1667 20.599 64.2969 20.3125C64.4531 20.026 64.5833 19.7266 64.6875 19.4141C64.6354 19.2839 64.6094 19.1406 64.6094 18.9844C64.6094 18.8021 64.5443 18.6719 64.4141 18.5938H64.375ZM61.2109 32.7344C61.1328 32.7604 61.0547 32.7995 60.9766 32.8516C60.9245 32.9297 60.8464 33.0078 60.7422 33.0859C60.4818 33.3464 60.2214 33.6068 59.9609 33.8672C59.7266 34.1536 59.5052 34.4661 59.2969 34.8047C59.0625 35.1432 58.7891 35.4688 58.4766 35.7812C58.1901 36.0938 57.9948 36.4453 57.8906 36.8359C57.6042 37.2786 57.3438 37.7344 57.1094 38.2031C56.901 38.6719 56.7318 39.1927 56.6016 39.7656C56.5495 40.0781 56.4974 40.3255 56.4453 40.5078C56.3932 40.6901 56.3542 40.8724 56.3281 41.0547C56.4844 40.8984 56.6406 40.7292 56.7969 40.5469C56.9792 40.3906 57.1354 40.2344 57.2656 40.0781C57.3177 40.026 57.3568 39.9609 57.3828 39.8828C57.4349 39.8047 57.487 39.7396 57.5391 39.6875C57.8516 39.2448 58.1771 38.8151 58.5156 38.3984C58.8542 37.9818 59.1667 37.5521 59.4531 37.1094C59.5833 36.9531 59.7005 36.7969 59.8047 36.6406C59.9089 36.5104 60.013 36.3672 60.1172 36.2109C60.5859 35.5599 60.9505 34.8568 61.2109 34.1016C61.4714 33.3724 61.7448 32.6172 62.0312 31.8359C61.875 31.9922 61.7188 32.1224 61.5625 32.2266C61.4323 32.3568 61.3151 32.526 61.2109 32.7344ZM80.2922 6.71875C80.4224 6.51042 80.5005 6.32812 80.5266 6.17188C80.5526 5.98958 80.6307 5.79427 80.7609 5.58594C81.2818 5.29948 81.7505 4.96094 82.1672 4.57031C82.5838 4.15365 83.0656 3.8151 83.6125 3.55469C83.9771 3.29427 84.2635 3.125 84.4719 3.04688C84.7062 2.94271 84.9276 2.8125 85.1359 2.65625C85.3703 2.55208 85.5917 2.44792 85.8 2.34375C86.0344 2.23958 86.2948 2.14844 86.5812 2.07031C86.7896 2.01823 86.9719 1.95312 87.1281 1.875C87.2844 1.77083 87.4406 1.69271 87.5969 1.64062C87.9615 1.51042 88.326 1.39323 88.6906 1.28906C89.0552 1.1849 89.4068 1.08073 89.7453 0.976562C89.8755 0.924479 90.0318 0.859375 90.2141 0.78125C90.3963 0.703125 90.5656 0.677083 90.7219 0.703125C91.0083 0.755208 91.1776 0.768229 91.2297 0.742188C91.3078 0.716146 91.3729 0.703125 91.425 0.703125C91.6333 0.677083 91.8026 0.703125 91.9328 0.78125C92.0891 0.859375 92.2583 0.924479 92.4406 0.976562C92.5969 1.02865 92.7401 1.06771 92.8703 1.09375C93.0266 1.11979 93.1698 1.15885 93.3 1.21094C93.4302 1.26302 93.5344 1.34115 93.6125 1.44531C93.7167 1.52344 93.8078 1.60156 93.8859 1.67969C93.9901 1.73177 94.0812 1.79688 94.1594 1.875C94.2635 1.95312 94.3677 2.03125 94.4719 2.10938C94.6802 2.55208 94.9146 2.99479 95.175 3.4375C95.4354 3.88021 95.5656 4.41406 95.5656 5.03906C95.4094 5.27344 95.3182 5.39062 95.2922 5.39062C95.2661 5.39062 95.2401 5.41667 95.2141 5.46875C94.9276 5.65104 94.7193 5.82031 94.5891 5.97656C94.4588 6.10677 94.3156 6.25 94.1594 6.40625L93.6125 6.95312C93.5344 7.00521 93.4432 7.05729 93.3391 7.10938C93.2349 7.13542 93.1698 7.21354 93.1437 7.34375C92.9354 7.44792 92.7661 7.57812 92.6359 7.73438C92.5057 7.89062 92.3365 8.00781 92.1281 8.08594C91.8937 8.3724 91.6073 8.60677 91.2687 8.78906C90.9302 8.94531 90.6177 9.1276 90.3312 9.33594C90.0448 9.51823 89.8495 9.63542 89.7453 9.6875C89.6672 9.73958 89.5891 9.80469 89.5109 9.88281C89.2245 10.013 88.9641 10.1432 88.7297 10.2734C88.5213 10.4036 88.274 10.5208 87.9875 10.625C87.8573 10.6771 87.7271 10.7422 87.5969 10.8203C87.4927 10.8984 87.3495 10.9245 87.1672 10.8984C87.037 10.8464 86.9068 10.7943 86.7766 10.7422C86.6463 10.6641 86.5292 10.7161 86.425 10.8984C86.0865 10.9505 85.7609 10.8984 85.4484 10.7422C85.162 10.5599 85.0057 10.3125 84.9797 10C84.6672 9.73958 84.576 9.38802 84.7062 8.94531C84.7583 8.73698 84.8495 8.52865 84.9797 8.32031C85.1359 8.11198 85.2661 7.91667 85.3703 7.73438C85.5005 7.5 85.6177 7.27865 85.7219 7.07031C85.826 6.83594 85.9432 6.61458 86.0734 6.40625C86.438 6.01562 86.8026 5.65104 87.1672 5.3125C87.5578 4.97396 88.0396 4.73958 88.6125 4.60938C88.7948 4.55729 88.9771 4.50521 89.1594 4.45312C89.3417 4.40104 89.5109 4.34896 89.6672 4.29688C89.7453 4.34896 89.8234 4.34896 89.9016 4.29688C89.9797 4.24479 90.0578 4.24479 90.1359 4.29688C90.2401 4.375 90.2792 4.46615 90.2531 4.57031C90.2271 4.67448 90.2141 4.79167 90.2141 4.92188C90.1359 5.02604 90.0318 5.10417 89.9016 5.15625C89.7713 5.18229 89.6411 5.22135 89.5109 5.27344C89.4068 5.29948 89.3026 5.35156 89.1984 5.42969C89.0943 5.48177 89.0292 5.58594 89.0031 5.74219C88.274 6.36719 87.6229 7.14844 87.05 8.08594C87.1281 8.13802 87.2323 8.20312 87.3625 8.28125C87.4927 8.35938 87.6229 8.41146 87.7531 8.4375C87.9615 8.48958 88.1958 8.4375 88.4562 8.28125C88.7427 8.125 88.9641 8.00781 89.1203 7.92969C89.8495 7.59115 90.5005 7.13542 91.0734 6.5625C91.2297 6.43229 91.3859 6.28906 91.5422 6.13281C91.7245 5.97656 91.8547 5.82031 91.9328 5.66406C92.037 5.53385 92.1281 5.40365 92.2062 5.27344C92.2844 5.14323 92.3885 5.03906 92.5187 4.96094C92.5448 4.72656 92.5057 4.54427 92.4016 4.41406C92.3234 4.25781 92.2193 4.11458 92.0891 3.98438C91.9849 3.82812 91.8677 3.6849 91.7375 3.55469C91.6073 3.42448 91.5161 3.26823 91.4641 3.08594C91.3338 3.03385 91.2167 2.94271 91.1125 2.8125C91.0344 2.68229 90.9302 2.59115 90.8 2.53906C90.7479 2.53906 90.6307 2.52604 90.4484 2.5C90.2922 2.47396 90.201 2.46094 90.175 2.46094C89.524 2.59115 89.0161 2.73438 88.6516 2.89062C88.287 3.04688 87.9224 3.20312 87.5578 3.35938C86.6724 3.82812 85.8521 4.375 85.0969 5C85.0187 5.05208 84.9276 5.10417 84.8234 5.15625C84.7193 5.20833 84.6411 5.26042 84.5891 5.3125C84.4588 5.41667 84.3417 5.54688 84.2375 5.70312C84.1594 5.85938 84.0552 6.01562 83.925 6.17188C83.7948 6.35417 83.6516 6.53646 83.4953 6.71875C83.3651 6.875 83.274 7.05729 83.2219 7.26562C83.0656 7.34375 82.9615 7.5 82.9094 7.73438C82.8573 7.94271 82.7661 8.11198 82.6359 8.24219C82.5838 8.45052 82.5187 8.64583 82.4406 8.82812C82.3625 8.98438 82.2974 9.17969 82.2453 9.41406C82.4797 9.88281 82.649 10.2474 82.7531 10.5078C82.8833 10.7682 83.0135 11.0286 83.1437 11.2891C83.1698 11.5755 83.2479 11.8359 83.3781 12.0703C83.5344 12.2786 83.6776 12.526 83.8078 12.8125C84.1724 13.4115 84.4979 14.0495 84.7844 14.7266C85.0969 15.3776 85.4354 16.0026 85.8 16.6016C85.9562 16.9661 86.0995 17.3307 86.2297 17.6953C86.3859 18.0339 86.6073 18.3333 86.8937 18.5938C86.9458 18.776 87.0109 18.9583 87.0891 19.1406C87.1932 19.2969 87.2844 19.4661 87.3625 19.6484C87.4667 19.9609 87.6099 20.2995 87.7922 20.6641C87.8703 20.8724 87.9615 21.0547 88.0656 21.2109C88.1698 21.3672 88.2479 21.5234 88.3 21.6797C88.4042 21.9141 88.4823 22.2135 88.5344 22.5781C88.6125 22.9167 88.6385 23.2031 88.6125 23.4375C88.6125 23.6979 88.5995 23.8802 88.5734 23.9844C88.5474 24.0885 88.5083 24.1797 88.4562 24.2578C88.4042 24.3099 88.3521 24.375 88.3 24.4531C88.2479 24.5312 88.1958 24.6875 88.1437 24.9219C87.9094 25.3385 87.6359 25.7161 87.3234 26.0547C87.0109 26.3932 86.7375 26.7839 86.5031 27.2266C86.3469 27.4349 86.1776 27.6172 85.9953 27.7734C85.813 27.9297 85.6307 28.0859 85.4484 28.2422C85.2661 28.3724 85.0708 28.4896 84.8625 28.5938C84.6802 28.6979 84.5109 28.8281 84.3547 28.9844C83.912 29.375 83.4432 29.6615 82.9484 29.8438C82.4797 30 82.037 30.2214 81.6203 30.5078C81.4641 30.5078 81.3078 30.5208 81.1516 30.5469C80.9953 30.599 80.8391 30.651 80.6828 30.7031C80.5526 30.7552 80.4094 30.8073 80.2531 30.8594C80.1229 30.9115 79.9797 30.9635 79.8234 31.0156C79.6932 31.0677 79.576 31.1198 79.4719 31.1719C79.3937 31.224 79.2896 31.276 79.1594 31.3281C78.7948 31.4062 78.4042 31.4453 77.9875 31.4453C77.5708 31.4714 77.1411 31.4323 76.6984 31.3281C76.2036 31.1458 75.813 31.0677 75.5266 31.0938C75.2661 31.1198 75.0318 31.0156 74.8234 30.7812C74.6932 30.7292 74.6151 30.6641 74.5891 30.5859C74.5891 30.5078 74.537 30.4297 74.4328 30.3516C74.1463 30.1172 73.9641 29.974 73.8859 29.9219C73.8078 29.8698 73.7297 29.8047 73.6516 29.7266C73.2609 29.4141 72.9484 29.0495 72.7141 28.6328C72.6359 28.5026 72.5578 28.3724 72.4797 28.2422C72.4016 28.112 72.3495 27.9948 72.3234 27.8906C72.2713 27.7344 72.2713 27.5781 72.3234 27.4219C72.3495 27.2396 72.3104 27.0703 72.2062 26.9141C72.2323 26.7318 72.2323 26.5365 72.2062 26.3281C72.1802 26.1198 72.1672 25.9375 72.1672 25.7812C72.1672 25.5469 72.2062 25.3125 72.2844 25.0781C72.3365 24.8438 72.3234 24.6615 72.2453 24.5312C72.2974 24.1927 72.3755 23.9453 72.4797 23.7891C72.5838 23.6068 72.7141 23.4115 72.8703 23.2031C73.313 22.9948 73.6776 22.8125 73.9641 22.6562C74.2766 22.474 74.5891 22.3047 74.9016 22.1484C75.0318 22.0964 75.1359 22.0443 75.2141 21.9922C75.3182 21.9401 75.4224 21.888 75.5266 21.8359C75.7609 21.7057 76.0083 21.6016 76.2687 21.5234C76.5292 21.4453 76.8026 21.3411 77.0891 21.2109C77.3234 21.0807 77.5578 20.9635 77.7922 20.8594C78.0526 20.7552 78.3 20.638 78.5344 20.5078C78.6906 20.5078 78.8338 20.4688 78.9641 20.3906C79.1203 20.3125 79.2896 20.2734 79.4719 20.2734C79.524 20.2734 79.5891 20.2865 79.6672 20.3125C79.7453 20.3125 79.8234 20.3125 79.9016 20.3125C80.0318 20.3125 80.175 20.3125 80.3312 20.3125C80.4875 20.3125 80.6307 20.3385 80.7609 20.3906C80.8911 20.4427 81.0083 20.5208 81.1125 20.625C81.2167 20.7292 81.3599 20.7812 81.5422 20.7812C81.7245 20.9635 81.8677 21.1719 81.9719 21.4062C82.1021 21.6146 82.2062 21.8359 82.2844 22.0703C82.3365 22.2005 82.3755 22.3828 82.4016 22.6172C82.4536 22.8516 82.4797 23.0469 82.4797 23.2031C82.4536 23.5938 82.3104 23.8932 82.05 24.1016C81.8156 24.3099 81.5943 24.5573 81.3859 24.8438C81.0213 24.974 80.6177 25.1953 80.175 25.5078C79.9146 25.4818 79.6802 25.5339 79.4719 25.6641C79.2635 25.7682 79.0161 25.8594 78.7297 25.9375C78.5995 25.9635 78.4562 25.9635 78.3 25.9375C78.1437 25.9115 78.0005 25.9245 77.8703 25.9766C77.7401 26.0026 77.6099 26.0547 77.4797 26.1328C77.3495 26.2109 77.2193 26.224 77.0891 26.1719C76.9588 26.1198 76.8547 26.0156 76.7766 25.8594C76.7245 25.7031 76.7245 25.5469 76.7766 25.3906C76.9328 25.1302 77.1542 24.974 77.4406 24.9219C77.7531 24.8438 78.0526 24.7266 78.3391 24.5703C78.5995 24.4401 78.8208 24.2708 79.0031 24.0625C79.2115 23.8542 79.4198 23.6458 79.6281 23.4375C79.7583 23.2812 79.9146 23.125 80.0969 22.9688C80.2792 22.8125 80.3182 22.6042 80.2141 22.3438C79.9797 22.1615 79.7062 22.1094 79.3937 22.1875C79.1073 22.2656 78.8469 22.3568 78.6125 22.4609C78.1437 22.6693 77.675 22.8906 77.2062 23.125C76.7635 23.3594 76.3208 23.5807 75.8781 23.7891C75.6698 23.8672 75.5135 23.9583 75.4094 24.0625C75.3573 24.1406 75.3182 24.2448 75.2922 24.375C75.2661 24.5052 75.2271 24.6224 75.175 24.7266C74.9927 25.1172 74.9406 25.5078 75.0187 25.8984C75.0708 26.0286 75.1359 26.1589 75.2141 26.2891C75.2922 26.3932 75.3312 26.5104 75.3312 26.6406C75.4354 26.7448 75.5266 26.849 75.6047 26.9531C75.6828 27.0312 75.7609 27.1224 75.8391 27.2266C75.9172 27.2786 75.9823 27.3177 76.0344 27.3438C76.0865 27.3438 76.1646 27.3568 76.2687 27.3828C76.5292 27.5391 76.8417 27.6823 77.2062 27.8125C77.3625 27.8646 77.5969 27.9427 77.9094 28.0469C78.2479 28.151 78.4823 28.2031 78.6125 28.2031C78.7427 28.2292 78.912 28.2031 79.1203 28.125C79.3286 28.0469 79.5109 27.9818 79.6672 27.9297C80.2661 27.6432 80.8781 27.3438 81.5031 27.0312C82.1281 26.7188 82.7401 26.4193 83.3391 26.1328C83.5474 26.0026 83.7427 25.8594 83.925 25.7031C84.1073 25.5208 84.2635 25.3255 84.3937 25.1172C84.6281 24.8307 84.8234 24.4792 84.9797 24.0625C85.1359 23.6458 85.2531 23.2161 85.3312 22.7734C85.3573 22.6693 85.3703 22.5781 85.3703 22.5C85.3703 22.3958 85.3703 22.3047 85.3703 22.2266C85.2141 21.9401 85.1359 21.7708 85.1359 21.7188C85.162 21.6406 85.149 21.5755 85.0969 21.5234C84.9146 21.2109 84.7974 21.0026 84.7453 20.8984C84.7193 20.7682 84.6802 20.651 84.6281 20.5469C84.4458 20.2604 84.2245 20.013 83.9641 19.8047C83.7036 19.5964 83.5344 19.2839 83.4562 18.8672C83.3 18.737 83.1828 18.5677 83.1047 18.3594C83.0526 18.151 82.9224 18.0208 82.7141 17.9688C82.662 17.8385 82.6099 17.7344 82.5578 17.6562C82.5318 17.5521 82.4927 17.4219 82.4406 17.2656C82.2844 17.0833 82.1672 16.888 82.0891 16.6797C81.9328 16.5495 81.8026 16.4062 81.6984 16.25C81.5943 16.0938 81.4771 15.9245 81.3469 15.7422C81.1385 15.5339 80.9953 15.3776 80.9172 15.2734C80.813 15.1432 80.7219 15 80.6437 14.8438C80.5917 14.6875 80.5005 14.5443 80.3703 14.4141C80.2922 14.2839 80.188 14.1667 80.0578 14.0625C79.9536 13.9583 79.8755 13.8281 79.8234 13.6719C79.6151 13.4375 79.4458 13.1771 79.3156 12.8906C79.1854 12.5781 79.0812 12.2396 79.0031 11.875C79.0552 11.5625 79.0031 11.2891 78.8469 11.0547C78.6906 10.8203 78.6516 10.5208 78.7297 10.1562C78.8599 9.79167 79.0031 9.42708 79.1594 9.0625C79.3156 8.69792 79.4458 8.35938 79.55 8.04688C79.6802 7.99479 79.7583 7.90365 79.7844 7.77344C79.8104 7.61719 79.8495 7.47396 79.9016 7.34375L80.2922 6.71875ZM111.561 18.7109C111.691 18.737 111.769 18.7891 111.795 18.8672C111.847 18.9453 111.926 18.9844 112.03 18.9844C112.056 19.1146 112.043 19.2188 111.991 19.2969C111.965 19.375 111.926 19.4531 111.873 19.5312C111.821 19.5833 111.769 19.6484 111.717 19.7266C111.691 19.7786 111.691 19.8568 111.717 19.9609C111.483 20.1172 111.196 20.2214 110.858 20.2734C110.519 20.2995 110.259 20.4297 110.077 20.6641C109.634 20.8724 109.152 21.0156 108.631 21.0938C108.136 21.1458 107.616 21.224 107.069 21.3281C106.808 21.5104 106.626 21.6146 106.522 21.6406C106.444 21.6667 106.353 21.7057 106.248 21.7578C105.988 21.6536 105.715 21.6016 105.428 21.6016C105.142 21.6016 104.855 21.5625 104.569 21.4844C104.412 21.5365 104.256 21.5625 104.1 21.5625C103.97 21.5625 103.827 21.5885 103.67 21.6406C103.566 21.849 103.514 22.0833 103.514 22.3438C103.514 22.6042 103.475 22.8385 103.397 23.0469L103.162 23.5156C103.136 23.6458 103.11 23.776 103.084 23.9062C103.084 24.0104 103.058 24.1276 103.006 24.2578C102.954 24.3359 102.889 24.4271 102.811 24.5312C102.759 24.6354 102.733 24.7526 102.733 24.8828C102.551 25.0911 102.42 25.3385 102.342 25.625C102.264 25.8854 102.121 26.1068 101.912 26.2891C101.834 26.5495 101.704 26.7578 101.522 26.9141C101.366 27.0703 101.209 27.2526 101.053 27.4609C100.767 27.8516 100.506 28.1901 100.272 28.4766C100.064 28.763 99.7771 29.0104 99.4125 29.2188C99.2823 29.4271 99.126 29.5703 98.9437 29.6484C98.7875 29.8047 98.6833 29.9349 98.6312 30.0391C98.3969 30.1693 98.1365 30.3255 97.85 30.5078C97.5635 30.6901 97.2641 30.8203 96.9516 30.8984C96.5089 31.0026 96.0792 30.9896 95.6625 30.8594C95.2458 30.7292 94.8552 30.5469 94.4906 30.3125C94.2562 30.3385 94.0609 30.2865 93.9047 30.1562C93.7745 30.0521 93.6052 29.974 93.3969 29.9219C93.1104 29.6615 92.7979 29.4271 92.4594 29.2188C92.1208 29.0104 91.8734 28.724 91.7172 28.3594C91.6651 28.0729 91.613 27.7865 91.5609 27.5C91.4828 27.2135 91.4177 26.9531 91.3656 26.7188C91.3135 26.4844 91.3135 26.237 91.3656 25.9766C91.3917 25.7161 91.3917 25.4557 91.3656 25.1953C91.3656 24.9089 91.3656 24.6745 91.3656 24.4922C91.3396 24.2839 91.3917 24.0365 91.5219 23.75C91.6781 23.4115 91.7823 23.138 91.8344 22.9297C91.8865 22.6953 91.9385 22.5 91.9906 22.3438C92.0687 22.2135 92.1469 22.0703 92.225 21.9141C92.3031 21.7578 92.3943 21.6146 92.4984 21.4844C92.6547 21.25 92.837 21.0156 93.0453 20.7812C93.2536 20.5469 93.462 20.3255 93.6703 20.1172C93.8266 19.9089 93.9698 19.7396 94.1 19.6094C94.3083 19.401 94.5297 19.2057 94.7641 19.0234C94.9984 18.8411 95.2328 18.6328 95.4672 18.3984C95.5193 18.3203 95.5844 18.2552 95.6625 18.2031C95.7406 18.151 95.8187 18.099 95.8969 18.0469C96.1573 17.8906 96.3917 17.7604 96.6 17.6562C96.8344 17.5521 97.0948 17.4349 97.3812 17.3047C97.5896 17.2005 97.7849 17.1354 97.9672 17.1094C98.1755 17.0573 98.4099 17.0052 98.6703 16.9531C98.8526 16.9531 99.0089 16.9531 99.1391 16.9531C99.2693 16.9531 99.3995 16.9271 99.5297 16.875C99.4516 16.6667 99.5427 16.5234 99.8031 16.4453C100.064 16.3672 100.259 16.3411 100.389 16.3672C100.649 16.3672 100.858 16.4323 101.014 16.5625C101.17 16.6667 101.314 16.7969 101.444 16.9531C101.73 17.1615 102.017 17.4349 102.303 17.7734C102.355 17.8255 102.42 17.8646 102.498 17.8906C102.577 17.9167 102.642 17.9557 102.694 18.0078C102.798 18.138 102.863 18.2812 102.889 18.4375C102.941 18.5938 103.032 18.737 103.162 18.8672C103.241 18.9193 103.319 18.9844 103.397 19.0625C103.475 19.1406 103.527 19.2448 103.553 19.375C103.683 19.4271 103.801 19.4792 103.905 19.5312C104.035 19.5573 104.165 19.5833 104.295 19.6094C104.426 19.6615 104.556 19.6745 104.686 19.6484C104.842 19.6224 105.011 19.6224 105.194 19.6484C105.324 19.6745 105.441 19.7135 105.545 19.7656C105.649 19.7917 105.767 19.8047 105.897 19.8047C106.105 19.7786 106.314 19.7266 106.522 19.6484C106.756 19.5703 107.017 19.5573 107.303 19.6094C107.694 19.7135 108.097 19.6745 108.514 19.4922C108.957 19.3099 109.399 19.1927 109.842 19.1406C109.946 19.1406 110.037 19.1406 110.116 19.1406C110.194 19.1146 110.285 19.1016 110.389 19.1016C110.519 18.9974 110.689 18.9193 110.897 18.8672C111.105 18.8151 111.327 18.763 111.561 18.7109ZM100.389 19.8828C100.129 19.6484 99.9724 19.5052 99.9203 19.4531C99.8943 19.375 99.8552 19.3229 99.8031 19.2969C99.699 19.1927 99.5687 19.1276 99.4125 19.1016C99.2562 19.0755 99.113 19.0495 98.9828 19.0234C98.5661 18.9453 98.2146 18.9974 97.9281 19.1797C97.6677 19.3359 97.4073 19.4922 97.1469 19.6484C96.7302 19.9089 96.3656 20.2344 96.0531 20.625C95.975 20.7552 95.8839 20.8984 95.7797 21.0547C95.7016 21.2109 95.6365 21.3802 95.5844 21.5625C95.4802 21.7708 95.3891 21.9661 95.3109 22.1484C95.2328 22.3047 95.1677 22.5 95.1156 22.7344C94.9854 22.9948 94.9073 23.2161 94.8812 23.3984C94.8552 23.5547 94.8292 23.6979 94.8031 23.8281C94.7771 24.0885 94.725 24.362 94.6469 24.6484C94.5948 24.9349 94.5687 25.1823 94.5687 25.3906C94.5948 25.4688 94.6339 25.5729 94.6859 25.7031C94.738 25.8333 94.7901 25.9245 94.8422 25.9766C94.8943 26.1068 94.9464 26.25 94.9984 26.4062C95.0766 26.5625 95.1417 26.6797 95.1937 26.7578C95.324 26.9401 95.4932 27.0573 95.7016 27.1094C95.9099 27.1615 96.1443 27.2266 96.4047 27.3047C96.6911 27.4609 96.8865 27.526 96.9906 27.5C97.0948 27.474 97.1729 27.4609 97.225 27.4609C97.5635 27.4089 97.863 27.2656 98.1234 27.0312C98.3839 26.7969 98.6443 26.6146 98.9047 26.4844C99.113 26.1719 99.3344 25.8464 99.5687 25.5078C99.8292 25.1432 100.064 24.7786 100.272 24.4141C100.35 24.3099 100.415 24.1927 100.467 24.0625C100.519 23.9323 100.571 23.8151 100.623 23.7109C100.806 23.5026 100.884 23.3854 100.858 23.3594C100.858 23.3333 100.871 23.2943 100.897 23.2422C101.079 22.8516 101.157 22.5521 101.131 22.3438C101.105 22.1354 101.105 21.9271 101.131 21.7188C101.001 21.4323 100.884 21.1198 100.78 20.7812C100.702 20.4427 100.571 20.1432 100.389 19.8828ZM110.955 25.1953C111.163 25.0651 111.332 24.8958 111.463 24.6875C111.593 24.4792 111.749 24.2708 111.931 24.0625C112.27 23.6719 112.634 23.3464 113.025 23.0859C113.207 22.8255 113.429 22.6302 113.689 22.5C113.976 22.3438 114.197 22.1224 114.353 21.8359C114.405 21.7578 114.444 21.6797 114.47 21.6016C114.522 21.5234 114.574 21.4453 114.627 21.3672C115.095 20.7161 115.629 20.1432 116.228 19.6484C116.384 19.5182 116.528 19.388 116.658 19.2578C116.814 19.1276 116.996 18.9974 117.205 18.8672C117.439 18.737 117.66 18.5677 117.869 18.3594C118.103 18.151 118.351 17.9948 118.611 17.8906C118.793 17.8125 118.963 17.7604 119.119 17.7344C119.275 17.6823 119.444 17.6302 119.627 17.5781C119.809 17.526 119.965 17.487 120.095 17.4609C120.252 17.4089 120.421 17.4089 120.603 17.4609C121.02 17.6432 121.332 17.9948 121.541 18.5156C121.593 18.6458 121.567 18.9323 121.463 19.375C121.384 19.7917 121.267 20.2604 121.111 20.7812C120.981 21.276 120.838 21.7578 120.681 22.2266C120.525 22.6953 120.421 23.0339 120.369 23.2422C120.317 23.4505 120.304 23.5677 120.33 23.5938C120.356 23.5938 120.369 23.6198 120.369 23.6719C120.317 23.8021 120.278 23.9193 120.252 24.0234C120.226 24.1276 120.199 24.2448 120.173 24.375C120.121 24.5833 120.082 24.8698 120.056 25.2344C120.03 25.5729 120.043 25.8464 120.095 26.0547C120.382 26.0286 120.525 26.0026 120.525 25.9766C120.551 25.9505 120.59 25.9375 120.642 25.9375C120.72 25.9115 120.798 25.9115 120.877 25.9375C120.981 25.9375 121.072 25.9245 121.15 25.8984C121.436 25.8203 121.697 25.7161 121.931 25.5859C122.166 25.4297 122.387 25.2474 122.595 25.0391C123.064 24.8307 123.494 24.6224 123.884 24.4141C124.249 24.1536 124.535 23.9714 124.744 23.8672C124.978 23.737 125.317 23.5677 125.759 23.3594C125.916 23.1771 126.137 23.0208 126.423 22.8906C126.736 22.7344 126.996 22.5651 127.205 22.3828C127.257 22.3307 127.322 22.2656 127.4 22.1875C127.478 22.0833 127.556 22.0573 127.634 22.1094C127.765 22.2396 127.843 22.3828 127.869 22.5391C127.921 22.6693 127.934 22.7604 127.908 22.8125C127.699 23.0208 127.582 23.1771 127.556 23.2812C127.556 23.3854 127.53 23.4635 127.478 23.5156C127.348 23.6458 127.153 23.763 126.892 23.8672C126.658 23.9714 126.515 24.0625 126.463 24.1406C126.436 24.1927 126.397 24.2448 126.345 24.2969C126.293 24.349 126.215 24.4141 126.111 24.4922C126.033 24.5443 125.968 24.5964 125.916 24.6484C125.864 24.7266 125.785 24.7786 125.681 24.8047C125.603 24.8047 125.525 24.8177 125.447 24.8438C125.291 24.974 125.16 25.0911 125.056 25.1953C124.952 25.2995 124.835 25.4167 124.705 25.5469C124.496 25.7552 124.366 25.9115 124.314 26.0156C124.262 26.0938 124.119 26.2109 123.884 26.3672C123.754 26.4453 123.624 26.5234 123.494 26.6016C123.364 26.6797 123.233 26.7578 123.103 26.8359C122.739 27.0182 122.374 27.2396 122.009 27.5C121.645 27.7604 121.28 28.0208 120.916 28.2812C120.655 28.4375 120.382 28.5807 120.095 28.7109C119.835 28.8151 119.588 28.9453 119.353 29.1016C119.249 29.1016 119.171 29.1016 119.119 29.1016C119.093 29.0755 119.028 29.0885 118.923 29.1406C118.793 29.0625 118.663 29.0625 118.533 29.1406C118.403 29.1927 118.272 29.1927 118.142 29.1406C117.882 28.9323 117.699 28.8021 117.595 28.75C117.517 28.6979 117.452 28.6328 117.4 28.5547C117.348 28.4245 117.322 28.2812 117.322 28.125C117.348 27.9688 117.322 27.8385 117.244 27.7344C117.244 27.1615 117.257 26.6146 117.283 26.0938C117.335 25.5729 117.426 25.026 117.556 24.4531C117.582 24.2708 117.634 24.0234 117.713 23.7109C117.791 23.3724 117.856 23.0469 117.908 22.7344C117.96 22.4219 117.999 22.1484 118.025 21.9141C118.051 21.6797 118.025 21.5365 117.947 21.4844C117.66 21.6406 117.361 21.875 117.048 22.1875C116.762 22.5 116.489 22.7604 116.228 22.9688C116.02 23.125 115.811 23.2682 115.603 23.3984C115.421 23.5286 115.226 23.6719 115.017 23.8281C114.835 23.9583 114.679 24.0885 114.548 24.2188C114.418 24.349 114.275 24.5052 114.119 24.6875C113.936 24.8698 113.767 25.0521 113.611 25.2344C113.455 25.3906 113.272 25.5469 113.064 25.7031C112.96 25.8073 112.856 25.8984 112.752 25.9766C112.673 26.0286 112.595 26.0938 112.517 26.1719C112.387 26.3021 112.257 26.4323 112.127 26.5625C112.022 26.6667 111.879 26.7578 111.697 26.8359C111.541 27.0443 111.332 27.2786 111.072 27.5391C110.838 27.7995 110.59 28.0859 110.33 28.3984C110.095 28.6849 109.861 28.9714 109.627 29.2578C109.392 29.5443 109.21 29.8047 109.08 30.0391C108.767 30.2995 108.429 30.5208 108.064 30.7031C107.726 30.9115 107.309 30.9375 106.814 30.7812C106.554 30.625 106.384 30.4948 106.306 30.3906C106.228 30.2865 106.137 30.2083 106.033 30.1562C106.059 29.8698 106.085 29.5964 106.111 29.3359C106.137 29.0755 106.215 28.8021 106.345 28.5156C106.371 28.4635 106.41 28.4115 106.463 28.3594C106.489 28.2812 106.528 28.2031 106.58 28.125C106.71 27.8906 106.801 27.6302 106.853 27.3438C106.879 27.0573 106.957 26.7839 107.088 26.5234C107.244 26.263 107.348 26.0547 107.4 25.8984C107.426 25.7161 107.478 25.5599 107.556 25.4297C107.608 25.2995 107.686 25.1823 107.791 25.0781C107.869 24.9479 107.934 24.8177 107.986 24.6875C108.038 24.5573 108.129 24.4141 108.259 24.2578C108.39 24.0755 108.481 23.9193 108.533 23.7891C108.611 23.5026 108.702 23.2161 108.806 22.9297C108.91 22.6432 109.028 22.3568 109.158 22.0703C109.21 21.888 109.262 21.7188 109.314 21.5625C109.366 21.3802 109.431 21.2109 109.509 21.0547C109.64 20.7682 109.77 20.4948 109.9 20.2344C110.03 19.9479 110.16 19.6615 110.291 19.375C110.369 19.2188 110.434 19.0885 110.486 18.9844C110.564 18.8542 110.655 18.724 110.759 18.5938C110.838 18.4635 110.903 18.3333 110.955 18.2031C111.033 18.0729 111.111 17.9427 111.189 17.8125C111.267 17.6823 111.332 17.5391 111.384 17.3828C111.463 17.2005 111.567 17.0312 111.697 16.875C111.879 16.6667 112.022 16.4714 112.127 16.2891C112.231 16.1068 112.4 15.9896 112.634 15.9375C112.739 15.9896 112.843 15.9896 112.947 15.9375C113.077 15.8854 113.194 15.8464 113.298 15.8203C113.429 15.7682 113.546 15.7422 113.65 15.7422C113.754 15.7161 113.845 15.7552 113.923 15.8594C114.262 16.0677 114.509 16.25 114.666 16.4062C114.822 16.5625 114.926 16.7057 114.978 16.8359C115.108 17.0703 115.121 17.3177 115.017 17.5781C114.913 17.8125 114.731 18.0208 114.47 18.2031C114.366 18.6458 114.184 19.0625 113.923 19.4531C113.663 19.8438 113.429 20.2214 113.22 20.5859C113.168 20.7161 113.116 20.8464 113.064 20.9766C113.012 21.1068 112.96 21.237 112.908 21.3672C112.752 21.7318 112.582 22.0964 112.4 22.4609C112.244 22.8255 112.061 23.1771 111.853 23.5156C111.749 23.724 111.658 23.8932 111.58 24.0234C111.502 24.1536 111.423 24.2708 111.345 24.375C111.267 24.4531 111.202 24.5573 111.15 24.6875C111.098 24.8177 111.033 24.987 110.955 25.1953Z" fill="url(#paint0_linear_2_24)"/>
<defs>
<linearGradient id="paint0_linear_2_24" x1="4.5" y1="46" x2="83.3248" y2="93.7608" gradientUnits="userSpaceOnUse">
<stop offset="0.00470465" stop-color="#FF8660"/>
<stop offset="1" stop-color="#9A33FF"/>
</linearGradient>
</defs>
</svg>
